<svg viewBox="0 0 64 64" xmlns="http://www.w3.org/2000/svg" fill="#000000"><g id="SVGRepo_bgCarrier" stroke-width="0"></g><g id="SVGRepo_tracerCarrier" stroke-linecap="round" stroke-linejoin="round"></g><g id="SVGRepo_iconCarrier"> <g id="a"></g> <g id="b"></g> <g id="c"></g> <g id="d"></g> <g id="e"></g> <g id="f"></g> <g id="g"></g> <g id="h"></g> <g id="i"></g> <g id="j"></g> <g id="k"> <path d="M45.91,15.08c1.05-5.87,3.46-9.98,6.26-9.98,3.77,0,6.83,7.43,6.83,16.59,0,5.06-.93,9.59-2.4,12.63-.48-.08-2.28,9.05-2.63,8.72-.35-.33-8.92,.07-8.92,.07l.86-28.03Z" fill="#6df4c0" fill-rule="evenodd"></path> <path d="M18.09,15.08c-1.05-5.87-3.46-9.98-6.27-9.98-3.77,0-6.83,7.43-6.83,16.59,0,5.06,.93,9.59,2.4,12.63l1.14,1.98-.9,11.2,12.27-1.02-1.96-9.67,1.98-8.32-1.83-13.41Z" fill="#6df4c0" fill-rule="evenodd"></path> <path d="M52.46,18.23c-.55,0-1,.45-1,1v15.47c0,.55,.45,1,1,1s1-.45,1-1v-9.88l2.89-1.96c.45-.31,.57-.93,.27-1.39-.15-.22-.38-.37-.64-.42-.26-.05-.53,0-.75,.15l-1.76,1.2v-3.17c0-.55-.45-1-1-1Zm-40.92,0c-.55,0-1,.45-1,1v3.17l-1.76-1.2c-.22-.15-.49-.2-.75-.15-.26,.05-.49,.2-.64,.42-.31,.45-.19,1.08,.27,1.39l2.89,1.96v9.88c0,.55,.45,1,1,1s1-.45,1-1v-10.37s0-.05,0-.07v-5.02c0-.55-.45-1-1-1Z" fill="#e59180" fill-rule="evenodd"></path> <polygon fill="#ffa6c5" fill-rule="evenodd" points="46.47 24.86 46.47 44.01 17.53 44.01 17.53 24.86 16.11 23.62 20.67 14.69 32.03 11.54 44.19 15.76 47.87 23.51 46.47 24.86"></polygon> <path d="M21.4,24.33c-.55,0-1,.45-1,1s.45,1,1,1h3.3c.55,0,1-.45,1-1s-.45-1-1-1h-3.3Z" fill="#fd91ba" fill-rule="evenodd"></path> <path d="M23.1,29.59c-.55,0-1,.45-1,1s.45,1,1,1h4.4c.55,0,1-.45,1-1s-.45-1-1-1h-4.4Z" fill="#fd91ba" fill-rule="evenodd"></path> <path d="M18.32,18.73c-.55,0-1,.45-1,1s.45,1,1,1h4.95c.55,0,1-.45,1-1s-.45-1-1-1h-4.95Z" fill="#fd91ba" fill-rule="evenodd"></path> <path d="M26.29,18.73c-.55,0-1,.45-1,1s.45,1,1,1h.9c.55,0,1-.45,1-1s-.45-1-1-1h-.9Z" fill="#fd91ba" fill-rule="evenodd"></path> <path d="M38.73,25.83c-.55,0-1,.45-1,1s.45,1,1,1h4.43c.55,0,1-.45,1-1s-.45-1-1-1h-4.43Z" fill="#fd91ba" fill-rule="evenodd"></path> <path d="M38.29,21.76c-.55,0-1,.45-1,1s.45,1,1,1h2.23c.55,0,1-.45,1-1s-.45-1-1-1h-2.23Z" fill="#fd91ba" fill-rule="evenodd"></path> <path d="M43.37,21.76c-.55,0-1,.45-1,1s.45,1,1,1h3.96c.55,0,1-.45,1-1s-.45-1-1-1h-3.96Z" fill="#fd91ba" fill-rule="evenodd"></path> <path d="M10.25,38.8v-4.1H53.75v4.1H10.25Z" fill="#e59180" fill-rule="evenodd"></path> <path d="M7.06,42.25c-1.08,0-1.95,.87-1.95,1.95v6.63H58.9v-6.63c0-1.08-.87-1.95-1.95-1.95H7.06Z" fill="#9af6d3" fill-rule="evenodd"></path> <path d="M7.05,48.88H56.94c1.08,0,1.95,.88,1.95,1.95v6.11c0,1.08-.88,1.95-1.95,1.95H7.06c-1.08,0-1.95-.88-1.95-1.95v-6.11c0-1.08,.88-1.95,1.95-1.95Z" fill="#f0bdb0"></path> <path d="M54.53,30.59c-1.15,0-2.07,.92-2.07,2.07v9.59h4.14v-9.59c0-1.15-.92-2.07-2.07-2.07Zm-9.01,0c-1.15,0-2.07,.92-2.07,2.07v9.59h4.14v-9.59c0-1.15-.92-2.07-2.07-2.07Zm-9.01,0c-1.15,0-2.07,.92-2.07,2.07v9.59h4.14v-9.59c0-1.15-.92-2.07-2.07-2.07Zm-9.01,0c-1.15,0-2.07,.92-2.07,2.07v9.59h4.14v-9.59c0-1.15-.93-2.07-2.07-2.07Zm-9.01,0c-1.15,0-2.07,.92-2.07,2.07v9.59h4.14v-9.59c0-1.15-.92-2.07-2.07-2.07Zm-9.01,0c-1.15,0-2.07,.92-2.07,2.07v9.59h4.14v-9.59c0-1.15-.92-2.07-2.07-2.07Z" fill="#e9a696" fill-rule="evenodd"></path> <path d="M31.37,9.43l-11.53,3.65c-.52,.16-.95,.52-1.2,.99l-4.77,8.8c-.55,1.01-.17,2.28,.84,2.83,1.01,.55,2.27,.17,2.83-.84l4.37-8.06,10.1-3.2,10.1,3.2,4.37,8.06c.55,1.01,1.81,1.38,2.82,.84,1.01-.55,1.39-1.81,.84-2.83l-4.78-8.8c-.26-.47-.69-.83-1.2-.99l-11.53-3.65c-.41-.13-.85-.13-1.26,0Z" fill="#8598ab" fill-rule="evenodd"></path> <path d="M34.38,27.77c-1.31,1.31-3.45,1.31-4.76,0-1.31-1.31-1.31-3.44,0-4.76,1.31-1.31,3.45-1.31,4.76,0,1.31,1.31,1.31,3.44,0,4.76Z" fill="#f0f4f6" fill-rule="evenodd"></path> <circle cx="13.1" cy="53.74" fill="#e9a696" r="1"></circle> <circle cx="22.26" cy="54.73" fill="#e9a696" r="1"></circle> <circle cx="31.59" cy="52.59" fill="#e9a696" r="1"></circle> <circle cx="40.01" cy="55.73" fill="#e9a696" r="1"></circle> <circle cx="50.52" cy="53.12" fill="#e9a696" r="1"></circle> </g> <g id="l"></g> <g id="m"></g> <g id="n"></g> <g id="o"></g> <g id="p"></g> <g id="q"></g> <g id="r"></g> <g id="s"></g> <g id="t"></g> <g id="u"></g> <g id="v"></g> <g id="w"></g> <g id="x"></g> <g id="y"></g> <g id="a`"></g> <g id="aa"></g> <g id="ab"></g> <g id="ac"></g> <g id="ad"></g> <g id="ae"></g> <g id="af"></g> <g id="ag"></g> <g id="ah"></g> <g id="ai"></g> <g id="aj"></g> <g id="ak"></g> <g id="al"></g> <g id="am"></g> <g id="an"></g> <g id="ao"></g> <g id="ap"></g> <g id="aq"></g> <g id="ar"></g> <g id="as"></g> <g id="at"></g> <g id="au"></g> <g id="av"></g> <g id="aw"></g> <g id="ax"></g> </g></svg>