<svg version="1.1" id="Layer_1" xmlns="http://www.w3.org/2000/svg" xmlns:xlink="http://www.w3.org/1999/xlink" viewBox="0 0 511.997 511.997" xml:space="preserve" fill="#000000"><g id="SVGRepo_bgCarrier" stroke-width="0"></g><g id="SVGRepo_tracerCarrier" stroke-linecap="round" stroke-linejoin="round"></g><g id="SVGRepo_iconCarrier"> <g> <g> <path style="fill:#81C784;" d="M282.483,180.965c-39-1.677-69.199-34.595-67.513-73.596 C253.961,109.055,284.16,141.964,282.483,180.965"></path> <path style="fill:#81C784;" d="M344.276,92.689c48.79,0,88.276-39.486,88.276-88.276C383.762,4.413,344.276,43.899,344.276,92.689 "></path> </g> <g> <path style="fill:#4CAF50;" d="M300.134,260.413c-1.262,0-2.534-0.265-3.743-0.839c-4.414-2.074-6.321-7.327-4.246-11.741 c10.567-22.519,19.244-157.758-34.022-220.028c-3.169-3.708-2.737-9.278,0.971-12.447c3.708-3.169,9.269-2.737,12.438,0.971 c57.282,66.948,51.421,207.422,36.599,239.007C306.622,258.542,303.444,260.413,300.134,260.413"></path> <path style="fill:#4CAF50;" d="M308.961,180.965c-1.245,0-2.498-0.256-3.69-0.812c-4.431-2.048-6.365-7.283-4.317-11.714 c2.119-4.59,4.546-11.608,7.353-19.738c7.044-20.339,15.801-45.665,29.193-61.678c3.125-3.743,8.704-4.237,12.438-1.103 c3.743,3.125,4.237,8.695,1.112,12.438c-11.317,13.524-19.836,38.135-26.059,56.117c-2.966,8.572-5.526,15.978-8.015,21.363 C315.493,179.067,312.298,180.965,308.961,180.965"></path> <path style="fill:#4CAF50;" d="M307.582,224.391c-3.672,0-7.097-2.304-8.351-5.967c-4.043-11.794-11.52-22.069-22.228-30.535 c-3.822-3.028-4.467-8.58-1.439-12.403c3.019-3.831,8.572-4.476,12.394-1.448c13.4,10.611,22.819,23.614,27.975,38.656 c1.58,4.617-0.874,9.64-5.491,11.211C309.498,224.232,308.527,224.391,307.582,224.391"></path> <path style="fill:#4CAF50;" d="M290.918,76.736c-0.715,0-1.448-0.088-2.172-0.265c-4.723-1.201-7.583-5.994-6.4-10.726 c5.747-22.793,18.326-48.075,29.263-58.809c3.469-3.407,9.066-3.363,12.482,0.115c3.416,3.487,3.363,9.075-0.115,12.491 c-8.625,8.457-19.624,31.126-24.505,50.529C298.457,74.071,294.864,76.736,290.918,76.736"></path> <path style="fill:#4CAF50;" d="M302.694,119.172c-2.26,0-4.52-0.865-6.241-2.586l-2.216-2.225 c-8.395-8.492-25.856-26.147-40.898-30.914c-4.652-1.465-7.23-6.426-5.756-11.079c1.474-4.643,6.462-7.221,11.079-5.747 c19.2,6.082,38.02,25.097,48.128,35.319l2.145,2.163c3.452,3.452,3.452,9.031,0,12.482 C307.214,118.306,304.954,119.172,302.694,119.172"></path> </g> <path style="fill:#9E5A23;" d="M147.749,300.545c1.977,0.945,3.919,1.995,5.729,3.363c3.187,2.41,6.568,4.502,10.028,6.426 c0.503,0.274,0.989,0.574,1.492,0.847c3.354,1.766,6.815,3.301,10.364,4.634c0.609,0.23,1.218,0.45,1.836,0.662 c3.61,1.271,7.3,2.357,11.052,3.178c0.415,0.088,0.821,0.15,1.236,0.23c3.964,0.821,7.971,1.43,12.023,1.748 c2.03,0.124,4.07,0.23,6.109,0.23h34.428c0.53,0,1.05,0.079,1.571,0.097h0.185c22.298,0,43.697,10.514,56.108,29.034 c1.033,1.536,1.854,2.975,2.595,4.378c0.194,0.353,0.371,0.715,0.547,1.059c0.627,1.271,1.165,2.498,1.562,3.655 c0.026,0.088,0.071,0.177,0.106,0.265c0.406,1.218,0.653,2.366,0.821,3.46c0.053,0.3,0.079,0.583,0.115,0.865 c0.097,0.953,0.124,1.863,0.062,2.728c-0.009,0.115,0,0.247-0.009,0.371c-0.097,0.945-0.318,1.818-0.6,2.666 c-0.079,0.23-0.168,0.45-0.265,0.68c-0.282,0.689-0.618,1.351-1.015,1.969c-0.079,0.132-0.141,0.265-0.23,0.397 c-0.494,0.706-1.068,1.359-1.695,1.977c-0.168,0.168-0.353,0.327-0.53,0.486c-0.565,0.503-1.156,0.98-1.801,1.421 c-0.15,0.106-0.282,0.221-0.441,0.318c-0.777,0.512-1.615,0.98-2.489,1.412c-0.221,0.115-0.459,0.221-0.689,0.327 c-0.759,0.353-1.536,0.68-2.339,0.98c-0.194,0.071-0.38,0.15-0.574,0.221c-0.98,0.353-1.986,0.662-3.019,0.953 c-0.212,0.053-0.433,0.106-0.644,0.168c-0.909,0.238-1.836,0.459-2.772,0.653c-0.177,0.035-0.353,0.079-0.539,0.115 c-1.095,0.221-2.189,0.415-3.293,0.574c-0.141,0.026-0.282,0.044-0.433,0.062c-1.024,0.15-2.039,0.282-3.046,0.388 c-0.124,0.018-0.238,0.026-0.353,0.044c-2.313,0.238-4.529,0.38-6.559,0.468c5.72,0.097,12.288,0.23,19.173,0.362 c28.981,0.335,65.289-0.318,82.07-9.242l76.579-46.804c0.009,0-8.828-32.644-8.828-32.644s-19.509-17.655-26.483-17.655 c-7.45,0-61.122-0.097-72.377-0.097c-11.626,0-32.035-26.386-42.381-26.386c-11.361,0-76.791,16.455-81.205,17.558 c-4.414,1.103-97.103-26.483-97.103-26.483l-20.383,40.766c14.751,3.072,29.784,8.007,42.417,15.422 C145.189,299.344,146.478,299.909,147.749,300.545"></path> <path style="fill:#FABA81;" d="M505.82,350.154c6.833-5.667,8.218-15.713,3.046-22.925c-11.061-15.404-20.233-19.068-58.659,1.139 l-76.57,46.804c-23.402,12.438-84.807,8.828-111.298,8.828c0,0,62.517,4.237,37.57-33.006 c-12.403-18.52-33.81-28.787-56.099-28.787h-34.436c-20.074,0-39.865-6.215-55.896-18.3 c-37.402-28.195-109.338,27.127-109.338,27.127V489.93h123.586c17.629,0,35.24-1.333,52.665-3.981l115.059-17.496 c3.928,0,7.742-0.459,11.432-1.28c0.062-0.009,0.115-0.018,0.177-0.027c9.313-1.306,17.823-6.02,24.62-12.526L505.82,350.154z"></path> <polygon style="fill:#48A0DC;" points="0,507.585 44.138,507.585 44.138,304.551 0,304.551 "></polygon> <path style="fill:none;stroke:#F4935E;stroke-width:2;stroke-linecap:round;stroke-linejoin:round;" d="M152.561,410.482 c0-19.518,15.793-26.483,35.31-26.483h85.786"></path> </g> </g></svg>